<?xml version="1.0" encoding="UTF-8" standalone="no"?>
<svg
   viewBox="0 0 24 24"
   fill="none"
   stroke="currentColor"
   stroke-width="2"
   stroke-linecap="round"
   stroke-linejoin="round"
   version="1.1"
   id="svg4"
   sodipodi:docname="wearable-icon.svg"
   inkscape:version="1.4.2 (ebf0e940d0, 2025-05-08)"
   xmlns:inkscape="http://www.inkscape.org/namespaces/inkscape"
   xmlns:sodipodi="http://sodipodi.sourceforge.net/DTD/sodipodi-0.dtd"
   xmlns="http://www.w3.org/2000/svg"
   xmlns:svg="http://www.w3.org/2000/svg">
  <defs
     id="defs4" />
  <sodipodi:namedview
     id="namedview4"
     pagecolor="#ffffff"
     bordercolor="#000000"
     borderopacity="0.25"
     inkscape:showpageshadow="2"
     inkscape:pageopacity="0.0"
     inkscape:pagecheckerboard="0"
     inkscape:deskcolor="#d1d1d1"
     inkscape:zoom="19.445436"
     inkscape:cx="20.364675"
     inkscape:cy="3.8055201"
     inkscape:window-width="2880"
     inkscape:window-height="1620"
     inkscape:window-x="0"
     inkscape:window-y="0"
     inkscape:window-maximized="1"
     inkscape:current-layer="svg4" />
  <g
     id="g4"
     style="stroke-width:0.4;stroke-dasharray:none;paint-order:markers stroke fill">
    <path
       id="path2-7"
       d="M 23.747526,17.450841 C 23.68649,17.336367 23.58989,17.235674 23.465869,17.168162 l -0.101651,0.197824 0.101651,-0.197824 c -0.145396,-0.07948 -0.298789,-0.126277 -0.451694,-0.153379 -0.153066,-0.02712 -0.305969,-0.03502 -0.454955,-0.03502 -0.224378,1.65e-4 -0.440597,0.01768 -0.630216,0.02172 -0.166775,0.0036 -0.332897,0.009 -0.498691,0.01465 0.168733,-0.0112 0.337138,-0.02189 0.505382,-0.03082 0.146537,-0.008 0.317555,-0.0065 0.496569,-0.02864 0.178523,-0.02256 0.369936,-0.06952 0.54536,-0.188731 0.116032,-0.07895 0.204143,-0.187049 0.261748,-0.30625 0.05778,-0.119537 0.08648,-0.250354 0.08648,-0.381845 0,-0.185198 -0.05761,-0.374771 -0.180643,-0.529327 -0.118629,-0.149337 -0.271376,-0.248838 -0.43048,-0.305912 -0.159757,-0.05742 -0.325877,-0.07629 -0.490041,-0.07643 -0.21426,1.67e-4 -0.427215,0.03233 -0.624505,0.06768 -0.196963,0.03536 -0.379077,0.0739 -0.520067,0.09091 -0.769576,0.09362 -1.782459,0.240082 -2.532777,0.297664 -0.105419,0.0082 -0.21214,0.01583 -0.319678,0.02473 l -0.285897,0.02339 c 0.234658,-0.220554 0.471274,-0.443465 0.700383,-0.679339 0.111609,-0.115831 0.258811,-0.249512 0.385768,-0.415348 0.06332,-0.08334 0.122062,-0.1756 0.165795,-0.280826 0.04391,-0.104889 0.07196,-0.223585 0.0718,-0.350698 0,-0.02323 -8.16e-4,-0.04664 -0.0028,-0.0702 -0.0088,-0.110282 -0.03019,-0.209777 -0.06624,-0.299179 -0.05321,-0.133849 -0.144743,-0.24345 -0.25522,-0.308942 -0.110476,-0.0665 -0.23172,-0.09008 -0.347092,-0.09008 -0.140991,3.35e-4 -0.277739,0.03365 -0.40747,0.08232 -0.129575,0.04899 -0.251791,0.11431 -0.360147,0.186209 -0.428358,0.286213 -0.803356,0.616035 -1.20446,0.861337 -0.282473,0.173578 -0.553356,0.385042 -0.822121,0.603238 -0.402575,0.327463 -0.801234,0.670077 -1.210499,0.926998 -0.204633,0.128628 -0.411222,0.235705 -0.621405,0.311131 -0.21018,0.07525 -0.423461,0.11903 -0.645555,0.122394 -0.196964,0.0029 -0.600027,0.0044 -1.044213,0.0058 0.157308,0.132497 0.299604,0.282174 0.424439,0.446326 0.266645,-0.001 0.491348,-0.0025 0.625811,-0.0044 0.365697,-0.0052 0.707078,-0.100689 1.024796,-0.24648 0.47715,-0.219377 0.905182,-0.549869 1.313467,-0.881204 0.407634,-0.331841 0.796338,-0.665701 1.177047,-0.898881 0.443043,-0.272746 0.821467,-0.606776 1.218005,-0.869925 0.08274,-0.05521 0.179338,-0.106412 0.273984,-0.14193 0.09447,-0.03603 0.187173,-0.05556 0.258321,-0.05522 0.03901,0 0.07115,0.0055 0.09578,0.01419 0.03706,0.01376 0.05825,0.0288 0.08257,0.06415 0.0235,0.03535 0.04894,0.09951 0.05778,0.208769 8.16e-4,0.01143 0.0013,0.02273 0.0013,0.03367 -1.62e-4,0.05992 -0.01232,0.115327 -0.03672,0.174084 -0.03607,0.08755 -0.101992,0.180484 -0.185215,0.273588 -0.08273,0.09344 -0.180807,0.186207 -0.27431,0.282342 -0.323269,0.333187 -0.672156,0.648528 -1.017289,0.978011 -0.02855,0.02727 -0.05221,0.06163 -0.06756,0.0985 -0.01534,0.03706 -0.02237,0.07593 -0.02237,0.113133 3.26e-4,0.07509 0.02693,0.143443 0.07522,0.197825 0.02432,0.02712 0.05466,0.05034 0.0899,0.06683 0.03525,0.0165 0.07523,0.02542 0.11505,0.02542 l 0.02205,-8.43e-4 4.9e-4,-1.66e-4 0.731227,-0.05961 c 0.104923,-0.0085 0.210834,-0.01634 0.317555,-0.02441 0.773003,-0.05976 1.78817,-0.206917 2.551219,-0.299685 0.170038,-0.02088 0.354926,-0.06077 0.543565,-0.09445 0.188152,-0.03384 0.37924,-0.06128 0.550257,-0.06111 0.131193,-1.7e-4 0.249507,0.01616 0.34644,0.05134 0.09743,0.0357 0.173463,0.08671 0.2389,0.168024 0.05368,0.067 0.08177,0.154387 0.08191,0.24463 0,0.06364 -0.01435,0.127275 -0.04079,0.181662 -0.02644,0.05456 -0.06397,0.09951 -0.112776,0.132838 -0.09479,0.06499 -0.215075,0.1 -0.35835,0.117677 -0.142624,0.01819 -0.303197,0.01785 -0.466544,0.02611 -0.605739,0.032 -1.20593,0.08401 -1.802694,0.118524 -0.03524,0.0021 -0.152251,0.0073 -0.303033,0.01768 -0.227313,0.01565 -0.5341,0.04241 -0.796174,0.0909 -0.131855,0.02475 -0.25114,0.05338 -0.35574,0.09697 -0.05253,0.02274 -0.102313,0.04798 -0.152904,0.09244 -0.02496,0.0224 -0.0506,0.05068 -0.07196,0.0894 -0.01893,0.034 -0.03279,0.07778 -0.0359,0.123569 h -4.88e-4 c -6.52e-4,0.0081 -8.15e-4,0.01314 -8.15e-4,0.01666 0,1.7e-4 0,3.38e-4 0,5.05e-4 v 0 5.07e-4 0.0029 0 3.35e-4 3.36e-4 0 c -6.53e-4,0.05976 0.02089,0.122394 0.05157,0.165499 0.0266,0.03871 0.05727,0.06499 0.086,0.08452 0.05092,0.03384 0.09856,0.05085 0.147192,0.06482 0.07294,0.02003 0.149965,0.03047 0.234005,0.03754 0.08388,0.0069 0.173953,0.0095 0.267786,0.0097 0.225355,-1.68e-4 0.471437,-0.0155 0.675091,-0.03047 0.101672,-0.0074 0.192719,-0.01515 0.264031,-0.02072 0.03541,-0.0028 0.06609,-0.0048 0.08991,-0.0065 0.02317,-0.0014 0.04096,-0.0022 0.04521,-0.0021 h 4.9e-4 c 0.01312,0 0.02628,0 0.03965,0 0.554174,0 1.101819,-0.02996 1.643752,-0.04191 0.206917,-0.0046 0.418894,-0.02189 0.620751,-0.02173 0.13381,0 0.262726,0.0074 0.381362,0.02864 0.118629,0.02103 0.226335,0.05539 0.32196,0.107753 v 0 c 0.05207,0.02895 0.08291,0.06298 0.105421,0.104046 0.02203,0.04091 0.03427,0.09091 0.03427,0.146979 3.29e-4,0.07375 -0.02252,0.155735 -0.0643,0.223247 -0.04192,0.06803 -0.09986,0.120206 -0.170039,0.148999 -0.138542,0.05708 -0.303359,0.07492 -0.485635,0.07459 -0.153557,1.66e-4 -0.317391,-0.01203 -0.484328,-0.01448 -0.08827,-0.0011 -0.176566,-0.0016 -0.264522,-0.0016 -0.387073,0 -0.770881,0.0094 -1.151264,0.009 -0.08224,0 -0.164161,-3.35e-4 -0.245917,-0.0014 -0.119119,-0.0014 -0.253751,-0.0029 -0.396538,-0.0029 -0.229272,0 -0.47976,0.0036 -0.722904,0.01718 -0.243471,0.01367 -0.478946,0.03671 -0.683739,0.07795 -0.07213,0.01499 -0.13985,0.04142 -0.200389,0.09328 -0.03003,0.02593 -0.05778,0.0591 -0.07833,0.09983 -0.02073,0.04057 -0.03295,0.08925 -0.03279,0.137714 -1.64e-4,0.05001 0.01272,0.0985 0.03295,0.138565 0.03068,0.06079 0.07521,0.1037 0.122221,0.134686 0.04732,0.03082 0.09856,0.05085 0.15323,0.06364 0.141806,0.03266 0.283614,0.03772 0.418403,0.03788 0.102489,0 0.200879,-0.0035 0.289488,-0.0032 0.03427,0 0.06709,5.06e-4 0.09792,0.0016 0.648494,0.02627 1.295192,0.04226 1.93928,0.06853 0.05351,0.0022 0.109323,0.0028 0.167099,0.0028 0.0607,0 0.12336,-5.05e-4 0.187173,-5.05e-4 0.201205,-5.04e-4 0.414324,0.0065 0.58583,0.04665 0.08582,0.01969 0.160247,0.04731 0.21834,0.08132 0.05841,0.03453 0.100347,0.07324 0.132187,0.122244 0.02805,0.04411 0.0408,0.09125 0.04111,0.147146 1.62e-4,0.04932 -0.01143,0.104392 -0.03376,0.157419 -0.02237,0.05286 -0.05533,0.102872 -0.09302,0.141931 -0.05892,0.06079 -0.126793,0.0985 -0.212629,0.12443 -0.08518,0.02557 -0.187334,0.03603 -0.296992,0.03669 -0.0142,0 -0.02838,1.7e-4 -0.0426,1.7e-4 -0.516805,3.36e-4 -1.055148,-0.06987 -1.601161,-0.09596 -0.07817,-0.0036 -0.156494,-0.0071 -0.234823,-0.01024 -0.550745,-0.0224 -1.101656,-0.04461 -1.652564,-0.06701 v 1.7e-4 l -0.01245,-3.37e-4 c -0.138054,1.67e-4 -0.259951,0.09075 -0.304337,0.225099 l 4.89e-4,-0.0014 -6.52e-4,0.0021 -3.27e-4,8.42e-4 c -0.01166,0.03535 -0.01746,0.07205 -0.01746,0.107752 1.63e-4,0.07813 0.02644,0.151357 0.07229,0.209274 0.04535,0.05808 0.112741,0.101692 0.189458,0.1165 0.25636,0.05001 0.467847,0.08436 0.676233,0.118184 0.208549,0.034 0.413997,0.06751 0.663178,0.116172 0.249509,0.04832 0.496897,0.07224 0.728454,0.111967 0.231722,0.0394 0.445494,0.09429 0.632174,0.193784 0.06529,0.03483 0.116351,0.08874 0.153068,0.156407 0.03654,0.06751 0.05646,0.148327 0.05631,0.225267 0,0.07778 -0.01974,0.149337 -0.05386,0.203717 -0.03475,0.05437 -0.08045,0.09513 -0.156985,0.121902 -0.07474,0.0251 -0.153554,0.03637 -0.238572,0.03637 -0.1875,6.74e-4 -0.402086,-0.05808 -0.616836,-0.121901 -0.291447,-0.08568 -0.542424,-0.138736 -0.789321,-0.184693 -0.247224,-0.04613 -0.489715,-0.08518 -0.772512,-0.143276 -0.985469,-0.203041 -1.970773,-0.435213 -2.969621,-0.62344 -0.318699,-0.05976 -0.65698,-0.177622 -1.007661,-0.292781 -0.350847,-0.114819 -0.714746,-0.227287 -1.093007,-0.265337 -0.305317,-0.03048 -0.611287,-0.05015 -0.916114,-0.05422 -0.01632,-3.38e-4 -0.03443,-3.38e-4 -0.05466,-3.38e-4 -1.62e-4,0 -3.26e-4,0 -4.88e-4,0 -0.109819,0.164995 -0.235474,0.317025 -0.375161,0.453399 0.157473,-0.0036 0.290141,-0.0058 0.375649,-0.0058 0.01893,0 0.03541,1.68e-4 0.0488,3.38e-4 0.290794,0.0038 0.584689,0.02274 0.880215,0.05219 0.321308,0.03181 0.658283,0.132839 1.003419,0.246314 0.345295,0.11296 0.698426,0.238061 1.06102,0.306584 0.986447,0.185872 1.969303,0.41737 2.962605,0.622097 0.293078,0.06029 0.540301,0.1 0.780345,0.14479 0.240207,0.04477 0.473723,0.09427 0.747546,0.17476 0.216872,0.06298 0.466216,0.138222 0.735797,0.138905 0.121889,0 0.248201,-0.01616 0.373854,-0.0586 0.168407,-0.05622 0.302707,-0.168867 0.386745,-0.305072 0.08487,-0.136203 0.122711,-0.292276 0.122711,-0.44599 -1.62e-4,-0.152872 -0.03722,-0.305742 -0.1108,-0.44279 -0.07342,-0.136708 -0.185703,-0.258267 -0.333549,-0.336723 -0.248528,-0.132155 -0.508806,-0.194625 -0.760274,-0.237726 -0.09904,-0.01684 -0.196311,-0.03048 -0.292263,-0.04379 0.03149,0.0014 0.06283,0.0026 0.09433,0.0039 0.522514,0.02423 1.067223,0.09596 1.620907,0.0963 0.01534,0 0.03051,0 0.04569,-1.68e-4 0.132666,-0.0011 0.27317,-0.01244 0.413996,-0.05405 0.140502,-0.04141 0.282635,-0.116338 0.400454,-0.239242 0.07703,-0.08013 0.138869,-0.17459 0.182929,-0.278638 0.04372,-0.103883 0.06983,-0.217692 0.07001,-0.336219 3.28e-4,-0.132675 -0.03443,-0.272576 -0.113907,-0.395311 -0.07392,-0.11482 -0.173138,-0.201698 -0.279697,-0.263654 -0.159757,-0.0926 -0.335018,-0.135532 -0.508644,-0.159437 0.10885,0.0044 0.224051,0.01014 0.343665,0.01024 0.20659,-3.37e-4 0.428033,-0.01752 0.645719,-0.106228 0.163346,-0.067 0.291121,-0.186378 0.376465,-0.325443 0.08535,-0.139404 0.131524,-0.299684 0.131855,-0.462993 0,-0.123421 -0.02725,-0.249513 -0.08876,-0.363998"
       style="fill:#3e214f;fill-opacity:1;fill-rule:nonzero;stroke:#3e214f;stroke-width:0.4;stroke-dasharray:none;stroke-opacity:1;paint-order:markers stroke fill" />
    <path
       id="path3-8"
       d="m 5.528949,17.072508 6.861172,-0.09462 c 0.07462,-0.139832 0.161678,-0.270771 0.259759,-0.391502 l -6.8377829,0.09434 c -0.083609,0.142748 -0.1783968,0.273832 -0.2831481,0.391793"
       style="fill:#3e214f;fill-opacity:1;fill-rule:nonzero;stroke:#3e214f;stroke-width:0.4;stroke-dasharray:none;stroke-opacity:1;paint-order:markers stroke fill" />
    <path
       id="path4-4"
       d="m 11.018421,19.729211 -7.534325,0.10381 c -0.148591,0.153691 -0.316911,0.286233 -0.5000705,0.394716 l 8.2706935,-0.114028 c -0.09003,-0.120153 -0.169167,-0.248899 -0.236298,-0.384502"
       style="fill:#3e214f;fill-opacity:1;fill-rule:nonzero;stroke:#3e214f;stroke-width:0.4;stroke-dasharray:none;stroke-opacity:1;paint-order:markers stroke fill" />
    <path
       id="path5"
       d="M 1.2174011,16.282132 C 1.1492101,16.179728 1.0892045,16.066797 1.039753,15.944053 0.91716666,15.639983 0.85725256,15.27929 0.88127446,14.892094 l 0.74369344,-9.0335711 2.632e-4,-0.00375 c 0.00425,-0.068831 0.00983,-0.1354565 0.019015,-0.198764 0.00505,-0.035023 0.010594,-0.069678 0.016548,-0.1036951 C 1.7231586,5.1961564 1.8329969,4.8957628 1.9773494,4.6481262 2.1942696,4.2768797 2.4874578,4.0224376 2.8295278,3.8740163 3.171555,3.7261507 3.5648707,3.685579 3.9778443,3.7587966 c 0.014419,0.00256 0.028906,0.00528 0.043488,0.00814 l 3.1790533,0.6244327 c 0.54511,0.1075376 0.9864235,0.384549 1.2651833,0.7939769 0.1394804,0.205225 0.2391992,0.4446603 0.2901072,0.7186706 0.05079,0.2739898 0.05255,0.5827972 -0.00731,0.92489 -0.012243,0.069948 -0.027057,0.1412709 -0.044547,0.2138085 -0.014971,0.062139 -0.034536,0.1259969 -0.056093,0.1914733 l -0.00114,0.0036 -2.6603525,8.6569044 c -0.1375971,0.417873 -0.3631173,0.762377 -0.6306023,1.00617 0.028753,0.13879 0.045498,0.281221 0.048958,0.426081 0.01129,-0.0083 0.022688,-0.01612 0.033843,-0.0247 0.01311,-0.0099 0.025454,-0.02153 0.038387,-0.03178 0.1167687,-0.09322 0.2264239,-0.200378 0.3275945,-0.320313 0.2192512,-0.259827 0.398583,-0.577459 0.5181818,-0.940354 l 0.00115,-0.0035 2.6612464,-8.6598436 -1.32e-5,-2.3e-6 c 0.022675,-0.069123 0.04508,-0.1416333 0.063468,-0.2178147 0.019371,-0.080374 0.035833,-0.1595743 0.049486,-0.237583 0.066874,-0.3818672 0.066592,-0.737602 0.00669,-1.0604008 C 9.0151701,5.3463712 8.7898732,4.9374247 8.4692135,4.6314148 8.1486758,4.324863 7.7351879,4.1205493 7.2700795,4.0291964 L 4.0910282,3.4047594 c -0.016474,-0.00321 -0.032976,-0.00642 -0.049575,-0.00937 -0.3140005,-0.055777 -0.6243713,-0.054706 -0.9185804,0.00502 -0.4411308,0.089129 -0.845871,0.3122043 -1.1627871,0.6651225 -0.317339,0.352702 -0.5453252,0.8318554 -0.6488693,1.4246765 -0.00662,0.037842 -0.012754,0.076196 -0.018341,0.1149273 -0.011222,0.077596 -0.017353,0.1532779 -0.021923,0.2259976 l -1.32e-5,-2.2e-6 -0.74393235,9.0364869 -2.5844e-4,0.0037 c -0.0364799,0.588534 0.0953989,1.133444 0.35520445,1.557395 0.051189,0.08347 0.1075758,0.161946 0.16848954,0.23531 0.045079,-0.134126 0.1013052,-0.26148 0.1669662,-0.381949"
       style="fill:#3e214f;fill-opacity:1;fill-rule:nonzero;stroke:#3e214f;stroke-width:0.4;stroke-dasharray:none;stroke-opacity:1;paint-order:markers stroke fill" />
    <path
       id="path6"
       d="m 3.1445551,19.300416 c -0.056757,0 -0.1140795,-0.0038 -0.1716977,-0.01125 C 2.6306911,19.244546 2.3329017,19.071033 2.1224378,18.822574 1.911748,18.574257 1.7863064,18.249537 1.7863064,17.901924 c -1.42e-5,-0.05861 0.00355,-0.117818 0.010857,-0.17716 0.043203,-0.353008 0.2114107,-0.660377 0.4521889,-0.877489 0.2406513,-0.217403 0.5553435,-0.346737 0.8923229,-0.346737 0.056757,0 0.1141496,0.0037 0.1717827,0.01113 0.3421802,0.04447 0.6399698,0.217987 0.8504476,0.466448 0.21069,0.248316 0.3361174,0.573036 0.3361174,0.920649 1.41e-5,0.05862 -0.00357,0.117817 -0.010834,0.17716 l -0.1864383,-0.0242 0.1864383,0.02435 c -0.043189,0.353 -0.2114248,0.660224 -0.4522455,0.877336 -0.2406653,0.217404 -0.5553858,0.346884 -0.8923795,0.346884 z m 1.6766155,0.326907 C 5.220984,19.214096 5.4796683,18.652725 5.5104211,18.023551 5.5208535,17.809938 5.5042465,17.60143 5.4639388,17.401377 5.4338925,17.252066 5.3904344,17.107715 5.3351194,16.96934 4.9964442,16.122325 4.2084063,15.507296 3.2625348,15.458158 c -1.074168,-0.05598 -2.0167606,0.635297 -2.35563394,1.631621 -0.046482,0.136771 -0.08187,0.278936 -0.1043977,0.426059 -0.013143,0.08559 -0.022245,0.172786 -0.026584,0.261438 -0.065915,1.348896 0.94051524,2.497446 2.24792874,2.565541 0.4710278,0.0245 0.9165038,-0.09521 1.2972521,-0.320784 0.1831595,-0.108487 0.3514796,-0.241025 0.5000706,-0.39471"
       style="fill:#3e214f;fill-opacity:1;fill-rule:nonzero;stroke:#3e214f;stroke-width:0.4;stroke-dasharray:none;stroke-opacity:1;paint-order:markers stroke fill" />
    <path
       id="path7"
       d="m 12.173391,19.812794 c -0.05681,0 -0.114194,-0.0038 -0.171852,-0.01125 -0.342152,-0.04462 -0.639928,-0.218132 -0.850363,-0.466594 -0.210718,-0.24817 -0.336217,-0.572889 -0.336217,-0.920503 0,-0.05861 0.0037,-0.117817 0.0109,-0.177305 0.04325,-0.353008 0.211424,-0.660231 0.452245,-0.877489 0.240679,-0.217404 0.555272,-0.346738 0.892337,-0.346738 0.05667,0 0.114195,0.0037 0.171854,0.01125 0.342151,0.04447 0.639928,0.218133 0.850363,0.466448 0.210718,0.248315 0.336074,0.573037 0.336074,0.920794 0,0.05847 -0.0036,0.117664 -0.01067,0.177161 l -0.186552,-0.02435 0.186552,0.02435 c -0.04324,0.353007 -0.211425,0.66023 -0.452246,0.877342 -0.240679,0.217404 -0.555414,0.346884 -0.892336,0.346884 z m 1.952995,-0.01691 c 0.207185,-0.311014 0.347946,-0.675978 0.396986,-1.076083 0.08283,-0.674666 -0.109535,-1.319588 -0.486305,-1.815634 -0.108111,-0.142165 -0.231351,-0.271793 -0.36759,-0.386545 -0.332683,-0.280247 -0.742673,-0.47126 -1.200007,-0.530897 -0.830434,-0.108486 -1.614232,0.24088 -2.114952,0.856784 -0.09808,0.120731 -0.18514,0.25167 -0.25976,0.391502 -0.1399128,0.262459 -0.2357318,0.555684 -0.2744558,0.870926 -0.06203,0.505965 0.03067,0.995159 0.2398318,1.417573 0.06713,0.135603 0.146273,0.264354 0.236297,0.384503 0.371689,0.496339 0.927104,0.845993 1.577914,0.931 0.732637,0.09566 1.429378,-0.164765 1.927131,-0.650461 0.120975,-0.118113 0.229797,-0.249774 0.32491,-0.392668"
       style="fill:#3e214f;fill-opacity:1;fill-rule:nonzero;stroke:#3e214f;stroke-width:0.4;stroke-dasharray:none;stroke-opacity:1;paint-order:markers stroke fill" />
    <path
       id="path8"
       d="m 12.818124,19.174143 c -0.174538,0.157621 -0.401509,0.250795 -0.644733,0.250795 -0.04098,0 -0.08268,-0.0026 -0.124649,-0.0082 -0.248453,-0.03252 -0.461715,-0.15704 -0.614772,-0.337116 -0.152773,-0.180221 -0.243082,-0.414394 -0.243082,-0.665187 0,-0.04243 0.0025,-0.0853 0.0079,-0.128606 0.03152,-0.256335 0.152209,-0.476509 0.326747,-0.634276 0.174681,-0.157621 0.401651,-0.25094 0.644874,-0.25094 0.04098,0 0.08268,0.0028 0.124509,0.0082 0.248594,0.03252 0.461855,0.157184 0.614912,0.33726 0.152633,0.180223 0.243082,0.414394 0.243082,0.665334 0,0.04228 -0.0025,0.08516 -0.0079,0.12846 v 0 c -0.03152,0.256334 -0.152351,0.47651 -0.326888,0.634276 z m 0.69985,-0.585575 -0.186551,-0.02435 0.186551,0.02435 c 0.0071,-0.05949 0.01067,-0.11869 0.01067,-0.177161 0,-0.347757 -0.125357,-0.672479 -0.336074,-0.920794 -0.210436,-0.248315 -0.508212,-0.421976 -0.850365,-0.466448 -0.05766,-0.0076 -0.115182,-0.01125 -0.171852,-0.01125 -0.337065,0 -0.651658,0.129334 -0.892337,0.346738 -0.240822,0.217258 -0.408999,0.524481 -0.452246,0.877489 -0.0071,0.05949 -0.0109,0.11869 -0.0109,0.177305 0,0.347614 0.125499,0.672334 0.336216,0.920503 0.210436,0.248462 0.508211,0.421976 0.850363,0.466595 0.05766,0.0073 0.11504,0.01113 0.171853,0.01113 0.336924,0 0.651657,-0.12948 0.892336,-0.346884 0.240821,-0.217112 0.409,-0.524334 0.452246,-0.877342"
       style="fill:#3e214f;fill-opacity:1;fill-rule:nonzero;stroke:#3e214f;stroke-width:0.4;stroke-dasharray:none;stroke-opacity:1;paint-order:markers stroke fill" />
    <path
       id="path9"
       d="M 2.4052892,18.567279 C 2.2525291,18.387058 2.1621648,18.15274 2.1621648,17.901945 c 0,-0.04243 0.00257,-0.0853 0.00788,-0.128459 0.031544,-0.256335 0.1522936,-0.476509 0.3268321,-0.634277 0.1746658,-0.157621 0.4016364,-0.250939 0.6447891,-0.250939 0.04107,0 0.082619,0.0026 0.1245653,0.0082 0.2485091,0.03252 0.4618275,0.157038 0.6147997,0.33726 0.1527599,0.180076 0.2431243,0.414394 0.2431243,0.665189 0,0.04243 -0.00257,0.0853 -0.00786,0.128604 -0.03153,0.256335 -0.1523079,0.476365 -0.3268463,0.634277 -0.174694,0.157622 -0.4017213,0.250794 -0.6448881,0.250794 -0.041026,0 -0.082591,-0.0026 -0.1245653,-0.0082 -0.2483744,-0.03252 -0.4617212,-0.157039 -0.6147064,-0.337115 z m 1.6316453,0.386253 c 0.2408208,-0.217112 0.409056,-0.524336 0.4522456,-0.877343 l -0.1864383,-0.02435 0.1864383,0.0242 c 0.00729,-0.05935 0.010857,-0.118542 0.010834,-0.177161 0,-0.347612 -0.1254275,-0.672332 -0.3361174,-0.920649 -0.2104779,-0.24846 -0.5082674,-0.421975 -0.8504477,-0.466448 -0.057633,-0.0076 -0.1150256,-0.01113 -0.1717826,-0.01113 -0.3369794,0 -0.6516717,0.129334 -0.8923229,0.346737 -0.2407782,0.217112 -0.4089854,0.524481 -0.452189,0.877489 -0.00731,0.05935 -0.010869,0.118542 -0.010857,0.177159 0,0.347614 0.1254417,0.672334 0.3361315,0.92065 0.2104639,0.24846 0.5082533,0.421976 0.8504194,0.466594 0.057619,0.0073 0.114941,0.01125 0.1716978,0.01125 0.3369936,0 0.6517142,-0.129481 0.8923795,-0.346884"
       style="fill:#3e214f;fill-opacity:1;fill-rule:nonzero;stroke:#3e214f;stroke-width:0.4;stroke-dasharray:none;stroke-opacity:1;paint-order:markers stroke fill" />
  </g>
</svg>
